<svg version="1.1" id="Layer_1" xmlns="http://www.w3.org/2000/svg" xmlns:xlink="http://www.w3.org/1999/xlink" x="0px" y="0px"
	 width="100%" viewBox="0 0 170 170" enable-background="new 0 0 170 170" xml:space="preserve">
<path fill="#FEFFFE" opacity="1.000000" stroke="none" 
	d="
M99.000000,171.000000 
	C66.000008,171.000000 33.500008,171.000000 1.000009,171.000000 
	C1.000006,114.333344 1.000006,57.666687 1.000003,1.000024 
	C57.666653,1.000016 114.333305,1.000016 170.999969,1.000008 
	C170.999969,57.666641 170.999969,114.333282 170.999985,170.999969 
	C147.166672,171.000000 123.333336,171.000000 99.000000,171.000000 
M40.243069,114.430305 
	C40.243107,97.956856 40.174473,81.483040 40.263607,65.010071 
	C40.343502,50.243233 50.282490,40.386345 65.071953,40.252415 
	C71.228195,40.196659 77.385361,40.243023 83.542107,40.242973 
	C86.954269,40.242947 90.366440,40.242970 93.712830,40.242970 
	C93.712830,34.362518 93.712830,29.317354 93.712830,24.108494 
	C82.007462,24.108494 70.676872,23.554640 59.420650,24.233681 
	C40.886307,25.351780 24.951736,41.035065 24.272375,59.538811 
	C23.534325,79.641090 24.131294,99.792480 24.171904,119.922394 
	C24.172440,120.188988 24.511093,120.454895 24.686493,120.713120 
	C29.764847,120.713120 34.824142,120.713120 40.243401,120.713120 
	C40.243401,118.691025 40.243401,117.049713 40.243069,114.430305 
M104.879585,35.399437 
	C104.981613,36.835327 105.083641,38.271214 105.195511,39.845718 
	C110.547432,39.845718 115.564972,39.845718 120.755188,39.845718 
	C120.755188,34.486004 120.755188,29.462194 120.755188,24.310852 
	C115.391441,24.310852 110.360939,24.310852 104.879326,24.310852 
	C104.879326,27.883656 104.879326,31.154947 104.879585,35.399437 
M148.041214,27.682539 
	C147.194763,26.460085 146.432037,24.262907 145.487549,24.181776 
	C141.103363,23.805191 136.668793,24.015179 132.182251,24.015179 
	C132.182251,29.674109 132.182251,34.702545 132.182251,39.823532 
	C137.571899,39.823532 142.597992,39.823532 148.041946,39.823532 
	C148.041946,35.865761 148.041946,32.251232 148.041214,27.682539 
M132.739746,66.929192 
	C137.656738,66.929192 142.573730,66.929192 147.763290,66.929192 
	C147.763290,61.580196 147.763290,56.539967 147.763290,51.230862 
	C142.473099,51.230862 137.433075,51.230862 132.065109,51.230862 
	C132.065109,56.410400 132.065109,61.327000 132.739746,66.929192 
M131.824219,81.648033 
	C131.824219,85.706116 131.824219,89.764191 131.824219,93.708206 
	C137.707794,93.708206 142.740479,93.708206 147.641937,93.708206 
	C147.641937,88.247177 147.641937,83.206238 147.641937,77.932777 
	C143.113632,77.932777 138.969620,77.747688 134.863159,78.058640 
	C133.792435,78.139717 132.838760,79.766396 131.824219,81.648033 
M146.227554,121.005707 
	C146.821228,120.373207 147.908142,119.756783 147.929352,119.105621 
	C148.078690,114.524841 148.008575,109.936905 148.008575,105.193504 
	C142.403015,105.193504 137.370499,105.193504 132.151901,105.193504 
	C132.151901,110.534309 132.151901,115.556473 132.151901,121.039558 
	C136.740326,121.039558 141.009491,121.039558 146.227554,121.005707 
M29.586102,131.823029 
	C27.844030,131.823029 26.101959,131.823029 24.348330,131.823029 
	C24.348330,137.619461 24.348330,142.656448 24.348330,147.680939 
	C29.739483,147.680939 34.776546,147.680939 39.793304,147.680939 
	C39.793304,142.279572 39.793304,137.246872 39.793304,131.822800 
	C36.462578,131.822800 33.506634,131.822800 29.586102,131.823029 
M50.957996,138.543747 
	C50.957996,141.617645 50.957996,144.691544 50.957996,147.654739 
	C56.785797,147.654739 61.833836,147.654739 66.759781,147.654739 
	C66.759781,142.218658 66.759781,137.178543 66.759781,132.242737 
	C61.304047,132.242737 56.274132,132.242737 50.957970,132.242737 
	C50.957970,134.301071 50.957970,135.941055 50.957996,138.543747 
M77.905884,137.581085 
	C77.905884,140.978790 77.905884,144.376495 77.905884,147.645233 
	C83.769409,147.645233 88.812004,147.645233 93.708298,147.645233 
	C93.708298,142.197617 93.708298,137.155121 93.708298,132.070618 
	C88.380493,132.070618 83.467201,132.070618 78.221764,132.070618 
	C78.116615,133.724884 78.024879,135.168198 77.905884,137.581085 
M104.880478,135.641968 
	C104.880478,139.693222 104.880478,143.744476 104.880478,147.621887 
	C110.771164,147.621887 115.804573,147.621887 120.651688,147.621887 
	C120.651688,142.149078 120.651688,137.104111 120.651688,131.830856 
	C116.090073,131.830856 111.942787,131.643051 107.834641,131.960922 
	C106.788269,132.041885 105.866066,133.727524 104.880478,135.641968 
M131.823013,139.513763 
	C131.823013,142.252106 131.823013,144.990448 131.823013,147.664047 
	C137.667328,147.664047 142.705093,147.664047 147.663651,147.664047 
	C147.663651,142.232773 147.663651,137.186447 147.663651,132.229599 
	C142.238937,132.229599 137.201004,132.229599 131.822784,132.229599 
	C131.822784,134.601776 131.822784,136.569458 131.823013,139.513763 
z"/>
<path fill="#47E3B7" opacity="1.000000" stroke="none" 
	d="
M40.243233,114.919357 
	C40.243401,117.049713 40.243401,118.691025 40.243401,120.713120 
	C34.824142,120.713120 29.764847,120.713120 24.686493,120.713120 
	C24.511093,120.454895 24.172440,120.188988 24.171904,119.922394 
	C24.131294,99.792480 23.534325,79.641090 24.272375,59.538811 
	C24.951736,41.035065 40.886307,25.351780 59.420650,24.233681 
	C70.676872,23.554640 82.007462,24.108494 93.712830,24.108494 
	C93.712830,29.317354 93.712830,34.362518 93.712830,40.242970 
	C90.366440,40.242970 86.954269,40.242947 83.542107,40.242973 
	C77.385361,40.243023 71.228195,40.196659 65.071953,40.252415 
	C50.282490,40.386345 40.343502,50.243233 40.263607,65.010071 
	C40.174473,81.483040 40.243107,97.956856 40.243233,114.919357 
z"/>
<path fill="#46E3B7" opacity="1.000000" stroke="none" 
	d="
M104.879456,34.912838 
	C104.879326,31.154947 104.879326,27.883656 104.879326,24.310852 
	C110.360939,24.310852 115.391441,24.310852 120.755188,24.310852 
	C120.755188,29.462194 120.755188,34.486004 120.755188,39.845718 
	C115.564972,39.845718 110.547432,39.845718 105.195511,39.845718 
	C105.083641,38.271214 104.981613,36.835327 104.879456,34.912838 
z"/>
<path fill="#46E3B7" opacity="1.000000" stroke="none" 
	d="
M148.041580,28.159622 
	C148.041946,32.251232 148.041946,35.865761 148.041946,39.823532 
	C142.597992,39.823532 137.571899,39.823532 132.182251,39.823532 
	C132.182251,34.702545 132.182251,29.674109 132.182251,24.015179 
	C136.668793,24.015179 141.103363,23.805191 145.487549,24.181776 
	C146.432037,24.262907 147.194763,26.460085 148.041580,28.159622 
z"/>
<path fill="#46E3B7" opacity="1.000000" stroke="none" 
	d="
M132.402435,66.586395 
	C132.065109,61.327000 132.065109,56.410400 132.065109,51.230862 
	C137.433075,51.230862 142.473099,51.230862 147.763290,51.230862 
	C147.763290,56.539967 147.763290,61.580196 147.763290,66.929192 
	C142.573730,66.929192 137.656738,66.929192 132.402435,66.586395 
z"/>
<path fill="#46E3B7" opacity="1.000000" stroke="none" 
	d="
M131.827774,81.165619 
	C132.838760,79.766396 133.792435,78.139717 134.863159,78.058640 
	C138.969620,77.747688 143.113632,77.932777 147.641937,77.932777 
	C147.641937,83.206238 147.641937,88.247177 147.641937,93.708206 
	C142.740479,93.708206 137.707794,93.708206 131.824219,93.708206 
	C131.824219,89.764191 131.824219,85.706116 131.827774,81.165619 
z"/>
<path fill="#46E3B7" opacity="1.000000" stroke="none" 
	d="
M145.753113,121.022629 
	C141.009491,121.039558 136.740326,121.039558 132.151901,121.039558 
	C132.151901,115.556473 132.151901,110.534309 132.151901,105.193504 
	C137.370499,105.193504 142.403015,105.193504 148.008575,105.193504 
	C148.008575,109.936905 148.078690,114.524841 147.929352,119.105621 
	C147.908142,119.756783 146.821228,120.373207 145.753113,121.022629 
z"/>
<path fill="#46E3B7" opacity="1.000000" stroke="none" 
	d="
M30.068396,131.822906 
	C33.506634,131.822800 36.462578,131.822800 39.793304,131.822800 
	C39.793304,137.246872 39.793304,142.279572 39.793304,147.680939 
	C34.776546,147.680939 29.739483,147.680939 24.348330,147.680939 
	C24.348330,142.656448 24.348330,137.619461 24.348330,131.823029 
	C26.101959,131.823029 27.844030,131.823029 30.068396,131.822906 
z"/>
<path fill="#46E3B7" opacity="1.000000" stroke="none" 
	d="
M50.957985,138.062378 
	C50.957970,135.941055 50.957970,134.301071 50.957970,132.242737 
	C56.274132,132.242737 61.304047,132.242737 66.759781,132.242737 
	C66.759781,137.178543 66.759781,142.218658 66.759781,147.654739 
	C61.833836,147.654739 56.785797,147.654739 50.957996,147.654739 
	C50.957996,144.691544 50.957996,141.617645 50.957985,138.062378 
z"/>
<path fill="#46E3B7" opacity="1.000000" stroke="none" 
	d="
M77.919510,137.096298 
	C78.024879,135.168198 78.116615,133.724884 78.221764,132.070618 
	C83.467201,132.070618 88.380493,132.070618 93.708298,132.070618 
	C93.708298,137.155121 93.708298,142.197617 93.708298,147.645233 
	C88.812004,147.645233 83.769409,147.645233 77.905884,147.645233 
	C77.905884,144.376495 77.905884,140.978790 77.919510,137.096298 
z"/>
<path fill="#46E3B7" opacity="1.000000" stroke="none" 
	d="
M104.883644,135.158905 
	C105.866066,133.727524 106.788269,132.041885 107.834641,131.960922 
	C111.942787,131.643051 116.090073,131.830856 120.651688,131.830856 
	C120.651688,137.104111 120.651688,142.149078 120.651688,147.621887 
	C115.804573,147.621887 110.771164,147.621887 104.880478,147.621887 
	C104.880478,143.744476 104.880478,139.693222 104.883644,135.158905 
z"/>
<path fill="#46E3B7" opacity="1.000000" stroke="none" 
	d="
M131.822906,139.025452 
	C131.822784,136.569458 131.822784,134.601776 131.822784,132.229599 
	C137.201004,132.229599 142.238937,132.229599 147.663651,132.229599 
	C147.663651,137.186447 147.663651,142.232773 147.663651,147.664047 
	C142.705093,147.664047 137.667328,147.664047 131.823013,147.664047 
	C131.823013,144.990448 131.823013,142.252106 131.822906,139.025452 
z"/>
</svg>